<svg xmlns="http://www.w3.org/2000/svg" width="413.215" height="512" viewBox="0 0 413.215 512">
  <g id="coffee" transform="translate(-0.5)">
    <path id="Path_8352" data-name="Path 8352" d="M389.949,66.262H24.266L85.02,493.133A21.956,21.956,0,0,0,106.758,512h200.7A21.956,21.956,0,0,0,329.2,493.133Zm0,0" fill="#f3e8d7"/>
    <path id="Path_8353" data-name="Path 8353" d="M329.887,66.262,266.445,512h41.008A21.96,21.96,0,0,0,329.2,493.133L389.949,66.262Zm0,0" fill="#e5d8c6"/>
    <path id="Path_8354" data-name="Path 8354" d="M352.051,0H62.164a8.7,8.7,0,0,0-8.52,6.941L40.332,71.473H373.883L360.57,6.941A8.7,8.7,0,0,0,352.051,0Zm0,0" fill="#c38c66"/>
    <path id="Path_8355" data-name="Path 8355" d="M364.219,24.641l-3.648-17.7A8.7,8.7,0,0,0,352.051,0H300.105l2.832,13.73c2.316,11.227-6.254,16.59-17.715,16.59H48.82L40.332,71.477H373.883Zm0,0" fill="#b57f5f"/>
    <path id="Path_8356" data-name="Path 8356" d="M400.91,107.211H13.3A12.8,12.8,0,0,1,.5,94.406V60.453a12.807,12.807,0,0,1,12.8-12.8H400.91a12.807,12.807,0,0,1,12.8,12.8V94.406A12.8,12.8,0,0,1,400.91,107.211Zm0,0" fill="#c38c66"/>
    <path id="Path_8357" data-name="Path 8357" d="M400.91,47.648H354.254V58.316c0,20.262-10.02,31.535-30.281,31.535H19.719a12.8,12.8,0,0,1-12.8-12.8L.5,94.406a12.8,12.8,0,0,0,12.8,12.8H400.91a12.8,12.8,0,0,0,12.8-12.8V60.453A12.807,12.807,0,0,0,400.91,47.648Zm0,0" fill="#b57f5f"/>
    <path id="Path_8358" data-name="Path 8358" d="M65.98,440.02,27.859,172.18A10.328,10.328,0,0,1,38.082,160.4H376.133a10.325,10.325,0,0,1,10.219,11.781L348.234,440.02a10.327,10.327,0,0,1-10.223,8.871H76.2A10.327,10.327,0,0,1,65.98,440.02Zm0,0" fill="#d19a6e"/>
    <path id="Path_8359" data-name="Path 8359" d="M376.133,160.4h-47.91L287.164,448.891h50.848a10.327,10.327,0,0,0,10.223-8.871l38.121-267.84A10.328,10.328,0,0,0,376.133,160.4Zm0,0" fill="#c38c66"/>
    <path id="Path_8360" data-name="Path 8360" d="M259.844,246.484c-22.684-22.684-64.687-17.461-93.812,11.668s-34.352,71.129-11.668,93.813,64.688,17.461,93.813-11.668S282.527,269.168,259.844,246.484Zm0,0" fill="#966a5b"/>
    <path id="Path_8361" data-name="Path 8361" d="M259.848,246.484a45.737,45.737,0,0,0-7.867-6.273c-13.078,7.141-38.316,23.926-45.453,50.1-3.105,11.391-14.113,24.938-31.824,39.164a244.9,244.9,0,0,1-24.738,17.363,45.076,45.076,0,0,0,11.617,11c15.215-9.656,52.266-35.578,59.867-63.457,6.578-24.121,35.02-39.309,42.633-42.992A45.932,45.932,0,0,0,259.848,246.484Zm0,0" fill="#785353"/>
  </g>
</svg>